<?xml version="1.0" encoding="UTF-8"?>
<!DOCTYPE svg PUBLIC "-//W3C//DTD SVG 1.1//EN" "http://www.w3.org/Graphics/SVG/1.1/DTD/svg11.dtd">
<!-- Creator: CorelDRAW 2021 (64-Bit) -->
<svg xmlns="http://www.w3.org/2000/svg" xml:space="preserve" width="131.79mm" height="50.2951mm" version="1.1" style="shape-rendering:geometricPrecision; text-rendering:geometricPrecision; image-rendering:optimizeQuality; fill-rule:evenodd; clip-rule:evenodd"
viewBox="0 0 13178.96 5029.51"
 xmlns:xlink="http://www.w3.org/1999/xlink"
 xmlns:xodm="http://www.corel.com/coreldraw/odm/2003">
 <defs>
  <style type="text/css">
   <![CDATA[
    .fil2 {fill:#3300CC}
    .fil1 {fill:#DA2C45}
    .fil0 {fill:black;fill-rule:nonzero}
    .fil3 {fill:#0038A7;fill-rule:nonzero}
   ]]>
  </style>
 </defs>
 <g id="Layer_x0020_1">
  <metadata id="CorelCorpID_0Corel-Layer"/>
  <polygon class="fil0" points="436.13,4205.36 1146.09,4205.36 782.95,5029.51 "/>
  <path class="fil1" d="M126.58 0l0.01 0c69.62,0 126.59,56.96 126.59,126.58l0 3143.28 317.82 758.7 -253.18 0 -317.82 -758.7 0 -3143.28c0,-69.62 56.96,-126.58 126.58,-126.58z"/>
  <path class="fil1" d="M1439.32 1729.24l-0.01 0c-69.62,0 -126.59,57 -126.59,126.58l0 1414.04 -317.82 758.7 253.18 0 317.82 -758.7 0 -1414.04c0,-69.62 -56.96,-126.58 -126.58,-126.58z"/>
  <path class="fil2" d="M782.95 87.86l0.01 0c69.62,0 126.58,56.96 126.58,126.58l0 221.43c0,69.62 -56.96,126.58 -126.58,126.58l-0.01 0c-69.62,0 -126.58,-56.96 -126.58,-126.58l0 -221.43c0,-69.62 56.96,-126.58 126.58,-126.58zm377.42 3009.64c-75.01,0 -150.04,-75.02 -150.04,-150.04l0 -2020.29c0,-120.57 -98.64,-219.22 -219.22,-219.22l0 0c-120.58,0 -219.22,98.65 -219.22,219.22l0 2020.29c0,75.02 -75.03,150.04 -150.04,150.04l-68.19 0 326.27 931.06 228.89 0 326.27 -931.06 -74.72 0z"/>
  <path class="fil3" d="M1455.7 1637.66c-25.93,0 -51.87,-5.7 -77.8,-17.07 -22.78,-8.23 -40.48,-23.41 -55.03,-44.29 -13.93,-20.86 -20.88,-42.37 -21.51,-64.52 0.63,-43.64 17.07,-96.77 51.24,-159.41 34.16,-63.24 104.37,-169.52 210.64,-318.81 82.23,-115.12 142.33,-204.31 178.38,-268.2 36.68,-63.26 65.79,-120.81 87.93,-171.42 15.18,-32.9 28.46,-56.3 41.11,-70.22 33.52,-29.72 75.91,-44.27 127.78,-44.27 67.05,0 125.88,21.5 177.12,65.78 51.24,43.66 76.54,96.79 76.54,158.14 0,31 -11.39,74.64 -34.8,130.95 -23.39,56.29 -35.41,84.12 -35.41,84.12 0,0 50.59,-34.15 151.17,-103.11 100.58,-68.31 167.64,-111.33 201.17,-128.41 29.72,-13.91 60.71,-20.23 94.24,-20.23 50.61,0 94.25,13.9 129.68,42.38 36.05,28.46 53.76,66.41 53.76,113.23 0,45.53 -11.39,94.24 -35.41,146.11 -23.41,51.87 -63.27,126.51 -120.2,224.56 12.66,-12.65 29.73,-30.35 51.87,-53.76 116.39,-125.25 258.1,-263.78 426.35,-416.86 39.22,-33.53 84.14,-74.01 133.47,-120.82 41.74,-39.22 72.11,-64.52 90.45,-75.28 18.99,-10.11 44.29,-15.18 76.54,-15.18 56.31,0 103.75,17.72 141.69,53.78 37.34,35.41 56.31,80.33 56.31,134.73 0,31 -7.6,69.57 -23.41,115.12 -15.18,45.55 -39.22,107.54 -70.84,185.35 -36.06,86.66 -63.27,156.87 -80.96,211.26 -17.72,54.41 -26.58,101.86 -26.58,142.97 0,80.96 44.27,122.71 133.48,123.97 70.2,0 148.02,-20.86 233.41,-61.98 85.39,-41.74 203.68,-127.77 355.49,-258.72 50.61,-44.28 86.67,-74.63 108.81,-89.82 21.51,-15.18 37.32,-23.41 46.81,-23.41 18.97,2.54 27.83,8.23 27.83,17.09 0,9.49 -9.49,25.93 -29.72,48.06 -19.62,22.14 -55.04,58.83 -106.91,109.44 -137.27,133.46 -265.05,231.51 -382.7,294.77 -118.3,62.62 -228.35,94.26 -330.83,94.26 -96.78,0 -178.38,-24.67 -244.81,-74.01 -67.04,-49.35 -110.7,-101.21 -131.56,-155.61 -23.41,-63.26 -35.43,-127.79 -35.43,-192.94 0,-56.93 8.23,-113.23 25.3,-168.89 16.46,-55.66 36.69,-112.6 60.1,-172.05 10.12,-27.21 14.55,-41.76 14.55,-44.29l0 -1.89c-14.55,0 -46.19,24.67 -94.88,74.64 -49.34,49.96 -120.83,127.78 -216.35,232.78 -106.27,118.3 -191.03,210.01 -253.66,275.17 -63.25,65.15 -110.05,104.37 -141.06,117.65 -22.14,12.65 -40.48,18.35 -55.66,18.35 -34.16,0 -69.57,-15.82 -104.38,-48.08 -35.41,-32.26 -53.13,-74.64 -53.13,-127.77 0,-46.82 15.19,-103.11 44.92,-167.64 29.09,-65.15 65.78,-137.27 108.79,-217.6 25.95,-46.17 39.23,-71.47 39.23,-75.91l-1.91 -1.89c-23.39,0 -103.74,51.87 -239.74,156.25 -136.62,104.37 -256.18,211.9 -358.66,321.33 -90.45,100.58 -165.73,172.05 -227.09,216.34 -61.36,43.64 -116.39,65.78 -165.73,65.78zm3018.59 0c-45.55,0 -92.36,-13.28 -139.18,-39.21 -46.8,-25.94 -86.02,-66.42 -116.37,-122.08 -31.01,-55.67 -46.82,-125.25 -46.82,-209.38 0,-134.74 36.06,-266.31 106.9,-394.09 70.85,-127.79 167.01,-232.16 287.19,-313.12 120.18,-80.96 250.48,-122.09 390.29,-123.35l36.69 -1.9c46.17,0 84.12,5.07 115.11,15.18 31.01,10.12 69.59,26.57 116.4,49.97 10.13,5.07 18.34,8.86 24.67,11.39 39.22,-30.99 73.37,-52.5 102.48,-65.15 29.09,-12.02 67.05,-18.34 113.86,-18.34 64.52,0 117.02,15.81 158.78,48.08 41.11,32.25 61.98,73.37 61.98,123.97 0,19.6 -8.85,49.34 -27.2,89.19 -17.71,39.22 -45.54,96.79 -84.12,172.06 -61.36,123.99 -110.07,227.72 -144.23,311.23 -34.8,84.12 -51.87,156.87 -51.87,218.86 0,30.99 3.79,56.29 12.65,75.91 8.86,20.23 21.51,31.62 39.22,35.41 2.52,0 7.59,0 16.45,0 13.9,1.28 24.66,1.91 33.52,1.91 45.55,0 90.45,-9.49 135.37,-27.83 44.27,-18.35 99.3,-52.51 164.47,-101.84 65.78,-49.36 151.81,-122.72 258.08,-218.88 97.41,-89.82 154.97,-135.37 172.06,-135.37l1.89 0c14.55,1.28 22.15,6.33 22.15,15.19 0,17.08 -29.11,55.03 -87.3,112.6 -122.09,123.97 -225.82,220.13 -311.85,289.07 -86.04,69.59 -165.1,118.93 -238.48,148.65 -36.68,14.55 -64.52,24.04 -82.23,27.85 -17.72,3.79 -51.24,5.68 -99.31,5.68 -48.08,0 -80.35,-1.89 -97.42,-5.06 -16.44,-3.16 -39.85,-11.39 -68.95,-24.66 -121.45,-59.47 -198.62,-160.68 -232.14,-304.26 -1.28,-5.07 -3.81,-12.02 -6.97,-22.16 -7.59,-23.39 -12.65,-35.41 -15.17,-35.41 -1.27,0 -10.13,12.02 -27.85,35.41 -58.82,79.08 -122.71,153.09 -189.75,221.4 -67.69,68.33 -139.18,114.5 -215.72,137.9 -36.04,10.13 -65.15,15.18 -87.28,15.18zm53.76 -139.16c13.29,0 37.33,-9.49 72.12,-28.46 34.78,-19.62 77.8,-51.24 129.04,-95.51 51.24,-44.29 114.49,-110.72 189.77,-198.63 2.53,-2.54 5.69,-6.33 9.49,-12.65 30.99,-36.06 49.33,-60.1 56.29,-73.38 6.95,-12.65 16.45,-37.96 29.1,-75.28 29.09,-91.08 65.78,-192.94 108.8,-305.52l0 -1.9c0,-5.07 -5.7,-7.59 -18.35,-7.59 -33.52,0 -76.54,10.75 -129.67,31.63 -74.01,37.31 -148.66,100.58 -223.3,189.77 -74.63,89.82 -135.99,184.7 -184.7,284.01 -48.08,99.32 -72.12,177.75 -72.12,235.95 0,38.59 11.39,57.56 33.53,57.56zm125.17 3189.4c-150.55,0 -258.33,-37.86 -322.6,-113.23 -64.03,-75.07 -96.16,-161.94 -96.16,-259.36 0,-123.34 45.17,-248.5 135.36,-375.1 89.99,-126.31 239.76,-259.36 448.5,-398.52 208.75,-139.16 484.53,-282.95 828.01,-430.77 38.47,-16.54 91.26,-38.39 157.52,-67.05 75.33,-32.59 115.55,-51.95 120.81,-53.77 21.88,-7.57 646.56,-1320.17 726.89,-1467.56 -11.37,6.33 -25.92,15.18 -44.27,25.93 -51.87,30.99 -92.98,51.24 -122.72,61.36 -29.73,9.49 -70.84,14.55 -123.99,14.55 -113.86,0 -195.45,-32.27 -244.79,-98.05 -49.33,-65.15 -74,-143.59 -74,-233.41 0,-122.09 35.41,-246.06 106.26,-370.68 71.47,-124.61 168.89,-227.72 292.88,-308.69 124.61,-80.97 263.13,-121.45 416.22,-121.45 53.14,0 106.27,6.95 160.03,20.87 53.78,13.28 96.79,31 129.06,53.13 16.44,12.65 29.09,18.98 39.21,18.98 5.69,0 17.08,-2.53 32.89,-7.59 32.27,-8.85 58.83,-13.29 79.71,-13.29 54.4,0 101.21,17.09 139.15,50.61 38.6,32.9 57.57,83.5 57.57,151.81 0,85.4 -16.44,175.23 -49.97,269.47 -33.52,94.89 -73.38,193.57 -120.83,297.31 -23.39,49.34 -34.78,76.54 -34.78,81.61 0,1.26 1.27,1.89 3.79,1.89 19.62,0 74.01,-22.14 162.57,-65.78 89.19,-43.65 205.58,-103.12 348.55,-179.01 141.06,-72.75 214.44,-108.81 220.76,-108.81 15.81,0 24.04,5.69 24.04,18.34 0,23.41 -74.01,73.38 -221.39,149.29 -148.03,75.91 -327.67,163.2 -540.22,261.88 -20.87,10.11 -36.68,17.71 -46.81,22.13 -124.61,221.4 -822.25,1661.33 -947.03,1847.74 -124.97,186.7 -249.76,355.04 -374.47,505.41 -124.41,149.99 -249.92,280.28 -374.48,391.56 -124.56,111.26 -248.72,201.73 -371.31,271.36 -123.36,70.05 -244.18,117.84 -364.35,143.6 -41.66,8.92 -93.62,13.29 -155.61,13.29zm-87.3 -199.9c139.8,0 291.99,-78.8 456.71,-235.93 164.75,-157.15 345.15,-377.04 537.04,-662.93 55.99,-83.42 120.97,-186.61 197.37,-308.06 75.93,-120.71 113.86,-185.34 113.86,-192.31 -7.6,0 -94.3,38.03 -260.61,113.88 -166.3,75.85 -286.12,131.97 -358.67,169.52 -299.93,155.28 -521.29,308.73 -664.2,458.6 -142.9,149.86 -213.79,292.88 -213.79,428.88 0,55.66 14.58,107.6 44.27,155.61 29.68,48.02 79.08,72.74 148.02,72.74zm1852.22 -3013.54c14.55,0 37.96,-5.69 69.59,-17.71 30.99,-11.38 62.61,-27.83 93.61,-48.71 37.96,-24.03 84.77,-60.09 140.43,-109.43 55.66,-49.33 96.16,-89.81 120.83,-120.82 17.07,-23.4 54.39,-90.45 111.95,-201.78 57.57,-111.34 86.66,-173.33 87.94,-185.35 0,-6.32 -8.23,-9.49 -24.04,-9.49 -68.96,0 -127.79,13.3 -175.85,39.23 -68.33,33.52 -136.64,86.02 -206.23,157.5 -68.94,71.49 -125.88,148.03 -171.42,228.99 -44.91,80.96 -67.04,149.92 -67.04,208.12l-1.91 25.93c0,23.41 6.96,34.8 22.14,33.52zm1727.54 163.2c-25.94,0 -51.24,-3.16 -74.65,-9.49 -67.69,-18.34 -118.91,-51.87 -153.71,-99.93 -34.79,-48.08 -51.87,-117.02 -51.87,-205.59 0,-116.39 32.26,-237.85 97.41,-364.35 64.52,-126.51 143.6,-232.79 235.95,-317.56 92.98,-85.38 177.12,-128.4 252.39,-128.4 50.61,0 94.25,14.54 130.31,43.02 36.69,28.46 55.04,60.71 55.04,96.14 0,17.72 -7.6,39.85 -23.41,67.69 -15.18,27.83 -44.92,70.21 -89.82,127.13 -110.07,149.29 -194.84,278.97 -255.57,389.03 -60.71,110.07 -91.08,187.87 -91.08,233.42 0,23.41 13.91,35.43 41.11,35.43 40.49,0 102.49,-16.46 185.35,-49.34 82.87,-32.9 173.32,-80.98 272,-145.5 82.86,-53.13 181.54,-125.88 294.77,-218.23 38.59,-32.25 66.42,-55.04 84.77,-67.68 17.71,-13.28 30.99,-19.61 39.85,-19.61 14.55,0 22.14,7.59 22.14,22.14 0,20.88 -64.53,84.77 -192.94,191.03 -128.41,106.27 -267.57,203.05 -418.12,289.72 -149.92,87.29 -270.1,130.93 -359.92,130.93zm509.21 -1165.81c-10.76,0 -23.41,-1.26 -36.69,-3.79 -21.5,-5.07 -40.49,-17.07 -57.56,-36.06 -17.72,-18.98 -25.95,-37.95 -25.95,-56.3 0,-37.31 20.25,-88.56 60.73,-153.71 32.27,-53.13 64.52,-91.09 96.79,-112.6 32.25,-21.5 68.94,-32.25 111.33,-32.25 45.54,0 82.86,10.12 112.6,29.72 29.72,19.62 44.9,44.92 44.9,75.91 0,23.41 -18.34,58.83 -53.76,106.28 -36.06,48.06 -77.8,90.45 -126.51,127.14 -48.08,37.31 -89.83,55.66 -125.88,55.66zm1653.5 1165.81c-30.99,0 -60.08,-3.16 -87.28,-9.49 -93.63,-20.87 -168.9,-69.57 -223.93,-145.48 -55.66,-75.91 -83.49,-157.52 -83.49,-245.43 0,-45.55 10.74,-105.01 32.25,-179.03 21.51,-73.36 46.18,-144.85 74.01,-213.79 27.83,-68.96 41.75,-103.75 41.75,-103.75l-3.79 -1.9c-34.16,0 -118.93,53.77 -253.66,161.31 -134.74,107.53 -306.79,264.41 -517.44,470.62 -96.15,93.63 -173.32,160.68 -231.51,199.89 -58.2,39.85 -109.44,59.47 -153.71,59.47 -37.97,0 -72.75,-10.76 -102.49,-33.53 -30.35,-22.14 -45.53,-49.97 -45.53,-83.5 0,-34.15 18.97,-84.13 58.2,-149.91 39.2,-65.15 101.84,-162.57 187.86,-290.99 90.45,-133.46 158.14,-236.57 204.31,-309.32 77.82,-120.81 123.36,-186.61 136.64,-196.73 20.25,-22.13 46.81,-39.85 79.71,-52.5 33.52,-13.28 68.94,-19.6 105.63,-19.6 60.73,0 113.86,15.81 159.4,47.44 46.18,31.62 68.96,74 68.96,127.13 0,24.69 -4.44,49.99 -13.29,76.54 -8.22,26.58 -24.03,65.17 -46.18,115.77 -7.58,17.71 -12.65,30.36 -16.44,39.22 19.6,-15.18 50.61,-39.22 92.35,-72.12 99.95,-80.33 184.08,-141.06 251.13,-182.17 67.68,-40.48 131.57,-60.73 191.66,-60.73 60.73,0 113.87,20.25 158.78,60.73 44.91,41.11 67.68,95.51 67.68,163.2 0,44.91 -6.95,94.25 -21.51,149.29 -13.91,55.03 -34.78,124.62 -61.99,208.74 -20.87,67.68 -36.68,121.46 -47.43,160.04 -10.13,39.22 -15.83,72.12 -15.83,99.3 0,61.36 36.06,92.37 107.54,92.37 49.35,0 108.81,-12.02 178.39,-36.69 68.94,-24.67 132.84,-56.94 192.29,-96.79 25.94,-18.34 84.77,-66.42 175.86,-144.22 67.04,-58.2 118.91,-101.84 156.25,-130.95 36.67,-29.09 60.08,-43.64 70.2,-43.64 12.02,0 20.88,5.07 25.94,15.18 0,10.76 -48.08,63.89 -144.85,159.41 -96.16,94.88 -169.54,161.31 -220.14,198 -89.19,61.98 -179.65,110.69 -272.63,145.48 -92.36,35.43 -177.12,53.13 -253.67,53.13zm1017.8 0c-25.94,0 -51.24,-3.16 -74.65,-9.49 -67.69,-18.34 -118.91,-51.87 -153.71,-99.93 -34.79,-48.08 -51.87,-117.02 -51.87,-205.59 0,-116.39 32.26,-237.85 97.41,-364.35 64.52,-126.51 143.6,-232.79 235.95,-317.56 92.98,-85.38 177.12,-128.4 252.39,-128.4 50.61,0 94.25,14.54 130.31,43.02 36.69,28.46 55.04,60.71 55.04,96.14 0,17.72 -7.6,39.85 -23.41,67.69 -15.18,27.83 -44.92,70.21 -89.82,127.13 -110.07,149.29 -194.84,278.97 -255.57,389.03 -60.71,110.07 -91.08,187.87 -91.08,233.42 0,23.41 13.91,35.43 41.11,35.43 40.49,0 102.49,-16.46 185.35,-49.34 82.87,-32.9 173.32,-80.98 272,-145.5 82.86,-53.13 181.54,-125.88 294.77,-218.23 38.59,-32.25 66.42,-55.04 84.77,-67.68 17.71,-13.28 30.99,-19.61 39.85,-19.61 14.55,0 22.14,7.59 22.14,22.14 0,20.88 -64.53,84.77 -192.94,191.03 -128.41,106.27 -267.57,203.05 -418.12,289.72 -149.92,87.29 -270.1,130.93 -359.92,130.93zm509.21 -1165.81c-10.76,0 -23.41,-1.26 -36.69,-3.79 -21.5,-5.07 -40.49,-17.07 -57.56,-36.06 -17.72,-18.98 -25.95,-37.95 -25.95,-56.3 0,-37.31 20.25,-88.56 60.73,-153.71 32.27,-53.13 64.52,-91.09 96.79,-112.6 32.25,-21.5 68.94,-32.25 111.33,-32.25 45.54,0 82.86,10.12 112.6,29.72 29.72,19.62 44.9,44.92 44.9,75.91 0,23.41 -18.34,58.83 -53.76,106.28 -36.06,48.06 -77.8,90.45 -126.51,127.14 -48.08,37.31 -89.83,55.66 -125.88,55.66zm17.07 1165.81c-24.67,0 -44.27,-6.95 -57.56,-20.23 -17.07,-16.46 -25.93,-33.53 -25.93,-51.87 0,-58.2 51.24,-141.07 153.71,-248.6 67.05,-64.52 139.16,-127.15 216.97,-189.14 5.05,-3.79 8.86,-6.33 11.38,-7.59 0,-4.43 0.64,-11.39 1.27,-20.24 11.38,-110.07 24.67,-202.42 41.11,-277.69 15.81,-75.28 45.55,-141.06 89.19,-197.37 43.02,-56.29 104.37,-84.75 183.45,-84.75 43.01,0 83.49,12.02 122.09,35.41 37.94,23.41 57.56,54.41 57.56,92.98 0,31.64 -4.43,75.29 -13.29,129.69l-3.79 25.93c2.53,-1.26 8.23,-4.42 17.08,-9.49 213.8,-115.12 328.93,-172.05 346.65,-172.05 13.28,0 29.09,5.69 48.06,18.34 18.35,12.02 27.83,27.83 27.83,46.18 0,16.44 -24.67,41.11 -73.38,75.28 -48.7,34.15 -119.55,79.06 -211.9,135.99 -70.85,43.02 -122.72,76.54 -156.88,99.31 -34.15,22.78 -52.5,39.22 -54.4,48.71 -12.65,91.72 -18.97,175.22 -18.97,250.5 0,54.4 4.43,96.77 13.29,127.77 8.21,31.01 16.44,50.61 24.02,59.47 8.86,7.58 21.51,10.74 38.6,10.74 32.27,0 71.47,-10.11 117.02,-30.99 34.78,-17.72 84.77,-58.83 151.18,-123.35 65.79,-65.15 122.08,-128.41 167.63,-189.77 43.02,-61.99 68.31,-92.98 75.91,-92.98 3.79,-1.27 7.59,-1.9 11.38,-1.9 5.69,0 12.02,2.53 18.34,6.32 6.34,4.44 8.86,9.49 8.86,15.81 0,10.13 -24.67,51.87 -74.64,125.25 -49.97,73.38 -91.09,127.79 -123.34,161.94 -60.73,73.38 -130.32,132.84 -208.75,179.01 -78.44,46.18 -149.92,69.59 -215.71,69.59 -65.15,0 -127.14,-19.61 -184.08,-59.46 -57.55,-39.22 -103.73,-94.25 -138.53,-165.1 -3.79,-8.23 -8.21,-19.6 -14.53,-32.9 -15.83,-42.38 -26.58,-63.24 -31.64,-63.24 -10.75,0 -68.32,44.27 -171.43,132.83 -103.1,87.93 -154.34,139.79 -154.97,154.34 0.63,2.53 1.26,5.7 3.79,9.49 6.33,6.32 9.49,13.29 9.49,22.13 -5.05,3.81 -12.65,5.7 -22.14,5.7z"/>
  <path class="fil3" d="M6729.03 3516.64c-9.84,0 -20.04,-2.38 -30.89,-7.12 -37.01,-16.64 -55.68,-48.21 -55.68,-95.4 0,-47.86 19.36,-103.52 58.4,-167.02 38.68,-63.81 105.9,-144.27 201.28,-241.68 34.3,-35.31 59.75,-59.75 75.71,-73.66 15.61,-13.92 29.88,-23.09 42.1,-27.85 12.21,-4.74 28.84,-6.78 49.21,-6.78 34.62,0 62.13,8.49 83.17,26.14 20.71,17.66 31.23,39.04 31.23,64.15 0,17.32 -6.79,37.69 -20.37,60.76 -13.57,23.09 -37.67,55.01 -71.97,95.4 -2.03,2.04 -3.05,3.39 -3.05,4.06l1.02 0c2.03,0 7.13,-2.71 15.95,-8.13 30.89,-19.02 69.93,-38.03 116.1,-57.03 46.5,-19.02 77.05,-28.19 91.65,-28.19 15.95,0 31.56,6.11 46.85,18.69 14.94,12.55 22.74,27.49 22.74,44.79 0,28.52 -19.34,76.05 -57.71,142.24 -9.16,15.28 -13.92,27.16 -13.92,35.65 0,15.27 12.56,23.07 37.69,23.07 32.59,0 73.65,-11.19 123.56,-33.94 49.55,-22.4 101.5,-48.54 156.15,-78.41 16.96,-9.5 26.13,-13.93 26.82,-13.93 9.16,0 14.6,3.75 15.95,11.89 0,4.75 -11.88,15.61 -35.31,32.92 -23.76,16.98 -52.95,35.31 -88.25,54.65 -34.97,19.02 -71.97,35.65 -110.33,49.24 -38.35,13.57 -72.98,20.35 -103.53,20.35 -45.49,0 -81.81,-11.19 -108.62,-33.94 -27.16,-22.4 -40.41,-53.64 -40.41,-93.35 0,-29.87 12.22,-64.83 36.67,-104.56 4.07,-6.45 6.11,-10.18 6.11,-10.85l-1.02 -1.03c-8.49,0 -31.23,12.57 -67.55,37.35 -36.66,24.78 -81.13,59.41 -133.75,103.87 -52.95,44.47 -107.26,94.71 -163.62,151.07 -67.56,66.53 -105.23,100.81 -112.35,103.52 -7.48,2.05 -13.92,3.06 -20.03,3.06zm985.45 0c-24.44,0 -49.57,-7.12 -74.69,-21.05 -25.11,-13.92 -46.16,-35.64 -62.46,-65.52 -16.63,-29.87 -25.11,-67.2 -25.11,-112.35 0,-72.3 19.34,-142.92 57.36,-211.48 38.03,-68.57 89.62,-124.59 154.11,-168.03 64.51,-43.46 134.43,-65.52 209.45,-66.2l19.68 -1.02c24.8,0 45.15,2.71 61.79,8.15 16.63,5.43 37.34,14.26 62.47,26.82 5.43,2.71 9.84,4.75 13.23,6.11 21.04,-16.63 39.37,-28.17 54.99,-34.97 15.62,-6.45 35.98,-9.84 61.11,-9.84 34.62,0 62.8,8.48 85.2,25.8 22.06,17.3 33.26,39.38 33.26,66.53 0,10.52 -4.74,26.48 -14.6,47.87 -9.5,21.04 -24.43,51.93 -45.14,92.32 -32.93,66.55 -59.06,122.21 -77.39,167.02 -18.68,45.15 -27.84,84.19 -27.84,117.45 0,16.64 2.04,30.21 6.8,40.74 4.74,10.86 11.52,16.97 21.04,19.01 1.35,0 4.07,0 8.81,0 7.48,0.67 13.25,1.01 18,1.01 24.45,0 48.55,-5.08 72.65,-14.94 23.75,-9.84 53.29,-28.17 88.26,-54.65 35.3,-26.48 81.46,-65.85 138.49,-117.45 52.27,-48.2 83.18,-72.64 92.34,-72.64l1.01 0c7.82,0.68 11.89,3.39 11.89,8.15 0,9.17 -15.62,29.52 -46.86,60.42 -65.5,66.54 -121.18,118.13 -167.34,155.13 -46.17,37.35 -88.61,63.81 -127.98,79.78 -19.68,7.8 -34.62,12.89 -44.12,14.93 -9.52,2.03 -27.51,3.06 -53.3,3.06 -25.8,0 -43.12,-1.03 -52.29,-2.72 -8.82,-1.7 -21.38,-6.11 -36.99,-13.25 -65.18,-31.9 -106.58,-86.21 -124.58,-163.27 -0.69,-2.72 -2.04,-6.45 -3.74,-11.88 -4.07,-12.56 -6.79,-19.01 -8.14,-19.01 -0.67,0 -5.43,6.45 -14.93,19.01 -31.58,42.43 -65.86,82.16 -101.84,118.82 -36.32,36.65 -74.69,61.43 -115.77,73.99 -19.34,5.43 -34.95,8.15 -46.83,8.15zm28.84 -74.68c7.14,0 20.03,-5.09 38.7,-15.28 18.68,-10.51 41.76,-27.49 69.25,-51.26 27.51,-23.76 61.45,-59.4 101.84,-106.58 1.37,-1.37 3.06,-3.39 5.1,-6.8 16.62,-19.34 26.48,-32.24 30.21,-39.38 3.73,-6.78 8.82,-20.35 15.61,-40.38 15.61,-48.88 35.31,-103.55 58.4,-163.97l0 -1.01c0,-2.72 -3.06,-4.07 -9.86,-4.07 -17.99,0 -41.06,5.77 -69.59,16.96 -39.71,20.04 -79.76,53.98 -119.83,101.84 -40.05,48.2 -72.98,99.12 -99.12,152.42 -25.79,53.3 -38.68,95.4 -38.68,126.62 0,20.71 6.11,30.89 17.97,30.89zm241.37 986.46c-11.88,0 -21.4,-3.39 -28.19,-10.18 -7.12,-7.14 -10.51,-17.31 -10.51,-30.55 0,-31.91 32.93,-108.64 99.12,-230.16 65.86,-121.52 166.67,-299.05 302.79,-532.6 143.59,-247.8 243.05,-416.51 297.7,-505.79 54.65,-88.95 90.99,-141.22 108.96,-156.49 24.46,-21.72 54.67,-32.93 90.65,-32.93 31.56,0 59.06,8.83 82.48,26.48 23.09,17.65 34.63,38.01 34.63,61.1 0,11.88 -2.37,24.1 -6.8,36.99 -4.74,12.58 -12.55,31.24 -24.1,56.36 -0.67,2.04 -1.01,3.73 -1.69,5.09 38.35,-34.29 70.6,-61.11 96.75,-80.11 26.14,-18.67 56.35,-34.96 89.95,-48.21 12.56,-4.4 24.11,-7.79 34.28,-9.5 10.53,-1.7 26.82,-2.38 49.24,-2.38 45.82,0 79.76,8.15 101.48,24.78 22.08,16.64 39.04,38.36 51.95,64.84 7.8,18.33 13.23,36.32 15.61,53.64 2.72,17.32 4.07,37 4.07,59.75 10.18,0 24.44,0.33 43.8,1.01 72.98,1.7 122.87,4.07 149.69,6.78 26.81,2.72 42.09,8.49 45.14,16.98l1.03 4.07c0,7.14 -6.45,11.88 -19.69,13.92 -3.4,0 -6.79,-0.67 -10.18,-2.04 -5.1,-1.35 -18.67,-2.04 -40.74,-2.04 -30.55,0 -75.02,1.37 -134.08,4.08 -17.99,0.68 -31.58,1.35 -40.74,2.05l-8.15 28.84c-14.59,49.57 -41.74,96.07 -82.15,139.51 -40.05,43.46 -86.56,78.43 -139.51,104.9 -52.96,26.48 -105.57,40.06 -157.16,40.74 -49.23,0 -87.24,-10.18 -114.75,-30.55 -27.5,-20.71 -41.41,-49.23 -41.41,-85.55 0,-52.61 27.16,-99.46 81.47,-141.22 54.32,-41.75 126.62,-70.26 216.91,-84.86l51.6 -7.8c10.18,-31.24 14.94,-62.12 14.94,-93.35 0,-28.52 -8.16,-42.78 -24.78,-42.78 -29.87,0 -60.08,7.81 -90.63,23.76 -93.35,47.87 -195.88,160.58 -307.23,338.11 -75,120.85 -162.6,253.57 -263.07,398.18 -100.47,144.94 -193.15,272.59 -278.01,382.56 -84.87,110 -143.25,177.54 -174.83,203.01 -27.83,21.04 -49.89,31.56 -65.84,31.56zm947.76 -1010.23c24.78,0 56,-12.89 94.7,-38.34 38.37,-25.47 75.7,-67.57 112.36,-125.95l9.85 -17.65c-66.88,14.6 -118.14,29.87 -153.09,45.49 -35.31,15.95 -59.41,39.37 -72.65,69.92 -6.8,13.25 -9.85,24.1 -9.85,32.59 0,8.15 1.7,15.61 4.76,23.09 3.39,7.12 8.15,10.85 13.92,10.85zm1386.69 98.45c-5.44,0 -16.31,-1.35 -32.93,-4.07 -50.25,-7.81 -92,-31.24 -125.27,-69.94 -33.26,-39.04 -49.89,-89.94 -49.89,-152.74 0,-43.12 4.41,-84.19 12.56,-122.89 8.15,-38.7 19,-79.44 32.25,-121.87 8.14,-26.48 11.88,-42.43 11.88,-47.53 0,-1.35 -0.35,-2.02 -1.03,-2.02 -5.08,0 -21.38,7.12 -48.54,21.72 -27.15,14.6 -53.97,30.55 -80.45,47.86 -78.42,51.6 -156.49,109.99 -234.23,174.82 -78.06,65.18 -136.12,119.49 -174.48,163.28 -26.8,30.54 -47.85,51.59 -63.48,63.47 -15.27,11.88 -29.52,17.99 -42.09,17.99 -31.9,0 -47.87,-18.66 -47.87,-55.66 0,-37.69 25.13,-107.27 75.38,-208.76 49.89,-101.5 118.46,-222.7 205.37,-363.22 86.56,-140.54 183.3,-285.49 289.21,-435.53 75.02,-103.88 150.04,-204.02 225.74,-299.75 75.7,-95.71 120.51,-148.33 134.43,-157.5 28.51,-17.99 59.73,-27.15 94.36,-27.15 38.37,0 70.6,9.84 97.08,29.53 26.15,19.68 39.04,43.44 39.04,71.97 0,20.01 -11.19,48.88 -33.6,87.24 -22.74,38.01 -62.13,94.7 -118.47,170.06 -56.35,75.02 -142.92,187.04 -259.69,335.39 -92.66,119.48 -172.78,223.02 -240.68,310.94 -67.54,87.91 -119.14,155.47 -155.12,203.34 -35.65,47.86 -53.64,72.64 -53.64,74.68 6.79,-2.72 38.03,-26.48 94.37,-71.63 77.73,-60.42 144.6,-111.68 200.96,-153.77 56.35,-42.09 101.16,-71.63 134.43,-88.94 15.95,-7.82 33.26,-11.89 52.61,-11.89 37.01,0 65.85,11.55 86.56,34.28 20.37,22.75 30.89,55.01 30.89,96.07 0,14.6 -3.39,37.35 -10.52,68.57 -6.78,31.24 -16.98,73.34 -30.21,126.28 -23.42,90.64 -34.97,144.27 -34.97,160.22 0,42.79 20.04,64.51 59.75,64.51 41.75,0 94.02,-19.7 157.16,-59.07 62.8,-39.72 137.49,-99.46 223.72,-179.57 25.79,-23.42 42.09,-34.97 48.87,-34.97 8.49,1.36 12.9,4.76 12.9,10.18 0,7.82 -11.88,23.09 -34.96,45.49 -94.04,90.98 -171.78,157.52 -232.54,199.61 -61.09,42.09 -118.8,68.22 -173.11,79.09 -20.03,7.81 -33.96,11.88 -41.75,11.88zm513.26 0c-13.92,0 -27.49,-1.7 -40.07,-5.1 -36.32,-9.84 -63.81,-27.83 -82.48,-53.63 -18.66,-25.79 -27.83,-62.79 -27.83,-110.32 0,-62.46 17.3,-127.64 52.27,-195.52 34.63,-67.9 77.06,-124.93 126.62,-170.42 49.9,-45.82 95.05,-68.91 135.44,-68.91 27.16,0 50.58,7.81 69.92,23.09 19.7,15.27 29.54,32.59 29.54,51.59 0,9.51 -4.07,21.39 -12.56,36.32 -8.15,14.94 -24.1,37.69 -48.2,68.24 -59.07,80.1 -104.56,149.71 -137.15,208.76 -32.57,59.07 -48.87,100.83 -48.87,125.27 0,12.55 7.47,19 22.07,19 21.72,0 54.99,-8.83 99.46,-26.48 44.46,-17.64 93.01,-43.44 145.96,-78.08 44.47,-28.5 97.43,-67.54 158.19,-117.09 20.71,-17.32 35.65,-29.54 45.49,-36.34 9.5,-7.12 16.62,-10.52 21.38,-10.52 7.82,0 11.88,4.07 11.88,11.89 0,11.2 -34.63,45.48 -103.54,102.51 -68.9,57.03 -143.58,108.96 -224.37,155.48 -80.46,46.83 -144.95,70.26 -193.15,70.26zm273.27 -625.62c-5.78,0 -12.58,-0.68 -19.7,-2.04 -11.54,-2.72 -21.72,-9.17 -30.89,-19.35 -9.5,-10.17 -13.92,-20.37 -13.92,-30.21 0,-20.03 10.87,-47.52 32.59,-82.49 17.32,-28.51 34.62,-48.88 51.93,-60.43 17.32,-11.52 37,-17.3 59.75,-17.3 24.44,0 44.47,5.42 60.42,15.95 15.95,10.52 24.1,24.11 24.1,40.73 0,12.57 -9.84,31.58 -28.84,57.03 -19.36,25.81 -41.76,48.56 -67.9,68.24 -25.8,20.03 -48.2,29.87 -67.54,29.87zm391.04 625.62c-21.39,0 -41.42,-2.38 -60.76,-7.12 -51.6,-12.58 -93.35,-39.38 -124.93,-80.8 -31.23,-41.75 -47.18,-89.28 -47.18,-142.92 0,-66.87 20.71,-130.34 62.11,-190.43 41.42,-60.08 93.02,-107.95 154.81,-144.27 61.77,-35.98 120.16,-53.97 175.15,-53.97 58.38,0 103.53,19.36 136.12,58.39 6.45,9.51 10.53,16.97 11.88,22.4 1.37,5.77 2.04,17.66 2.04,35.31 0,23.41 -4.08,44.46 -11.88,63.14 -8.15,19 -15.61,28.51 -23.09,28.51 -5.77,0 -10.51,-2.05 -13.9,-6.45 -3.06,-4.41 -6.8,-11.55 -10.87,-21.39 -2.72,-7.47 -4.76,-12.89 -6.79,-16.97l-1.03 0c-6.11,0 -21.72,10.53 -46.83,31.24 -25.13,21.04 -45.49,40.38 -60.76,58.38 -37.01,42.43 -68.24,88.25 -93.35,137.82 -25.13,49.21 -37.69,87.24 -37.69,113.72 0,13.23 3.73,22.06 11.21,26.46 7.8,4.09 21.72,6.47 42.43,6.47 62.8,0 130.68,-19.7 203.32,-59.41 72.66,-39.38 141.22,-87.92 206.4,-145.64 33.27,-30.55 54.65,-45.82 64.5,-45.82 4.07,0 6.11,3.05 6.11,9.16 0,11.89 -23.76,39.72 -71.29,83.85 -47.19,44.14 -94.38,81.81 -141.55,113.05 -64.5,43.1 -123.22,75.02 -177.2,96.07 -53.63,20.7 -102.51,31.22 -146.98,31.22zm462.34 0c-50.24,0 -87.91,-9.84 -113.04,-28.86 -24.78,-19.34 -37,-41.74 -37,-67.55 0,-22.75 11.21,-44.47 34.28,-65.85 22.75,-21.05 56.35,-40.73 100.82,-58.72 8.49,-2.38 16.98,-5.43 24.78,-8.83 8.15,-3.39 11.88,-5.09 11.88,-5.09 -1.01,-4.43 -13.57,-17.32 -36.66,-38.7 -49.21,-45.83 -73.65,-92.34 -73.65,-140.21 0,-42.43 15.27,-84.86 45.15,-127.63 30.21,-42.76 68.89,-77.73 116.08,-104.89 47.19,-27.49 94.03,-41.06 141.22,-41.06 46.85,0 85.89,12.22 116.77,35.96 30.89,23.77 46.16,50.25 46.16,79.45 0,23.42 -3.39,44.13 -10.85,62.8 -7.14,18.33 -17.99,27.83 -31.91,27.83 -8.49,0 -25.81,-6.79 -51.6,-20.03 -22.41,-11.2 -36.99,-16.97 -43.8,-16.97 -9.84,0 -27.15,11.19 -51.25,32.93 -24.1,22.06 -40.39,38.7 -49.22,50.92 -25.8,31.56 -38.7,57.71 -38.7,78.41 0,10.52 3.39,20.36 9.84,29.19 6.8,9.16 19.36,22.75 38.03,41.41 5.09,6.11 9.5,10.54 12.89,13.93 47.53,-9.86 104.56,-19.36 170.41,-27.85 65.86,-8.47 111.01,-12.89 134.77,-12.89l4.07 0c3.73,2.04 5.77,5.09 5.77,8.82 0,4.76 -2.04,7.14 -5.77,7.14 -1.35,0 -27.83,4.07 -79.09,11.87 -51.59,7.81 -98.11,15.62 -139.86,23.42 -41.76,7.48 -62.47,12.91 -62.47,16.31 0,1.35 2.38,6.44 7.82,14.93 17.31,29.88 25.8,53.98 25.8,72.64 0,11.89 -4.42,26.82 -13.25,44.12 -9.16,17.66 -19.34,32.59 -31.56,45.5 -21.72,21.05 -47.86,37.68 -78.41,49.56 -30.55,11.88 -63.48,17.99 -98.45,17.99zm-30.89 -57.71c16.63,0 37,-4.75 61.78,-13.92 24.44,-9.16 42.09,-23.43 52.62,-42.77 6.79,-11.88 9.84,-23.76 9.84,-35.98 0,-12.56 -2.38,-22.4 -7.81,-30.21 -5.42,-7.46 -13.91,-16.98 -25.79,-28.17 -3.39,-2.72 -5.77,-4.76 -7.14,-6.11 -57.71,23.75 -97.76,43.78 -120.84,59.73 -22.74,15.97 -34.28,33.96 -34.28,54.67 0,9.16 7.79,18.66 23.08,27.83 14.94,9.16 31.23,14.26 48.54,14.93z"/>
 </g>
</svg>
